<svg width="20" height="21" viewBox="0 0 20 21" fill="none" xmlns="http://www.w3.org/2000/svg">
<path d="M12.0875 13.4216H0.929565V9.87275H11.9648C12.7966 9.87275 13.4784 9.75002 14.0102 9.50457C14.5421 9.25911 14.9341 8.91138 15.1864 8.46138C15.4387 8.01138 15.5648 7.47957 15.5648 6.86593C15.5648 6.26593 15.4387 5.72388 15.1864 5.23979C14.9341 4.7557 14.5489 4.37047 14.0307 4.08411C13.5125 3.79775 12.8648 3.65457 12.0875 3.65457H8.30343V21H3.9057V0.0545654H12.0875C13.7443 0.0545654 15.1625 0.351156 16.3421 0.944338C17.5284 1.5307 18.4352 2.33525 19.0625 3.35797C19.6898 4.37388 20 5.52616 19.9932 6.81479C20 8.16479 19.683 9.33411 19.0421 10.3227C18.4012 11.3114 17.4875 12.075 16.3012 12.6137C15.1148 13.1523 13.7102 13.4216 12.0875 13.4216ZM12.875 14.7716V18.3205H0.929565V14.7716H12.875Z" fill="#21A038"/>
</svg>
